<?xml version="1.0" encoding="UTF-8"?>
<svg version="1.1" xmlns="http://www.w3.org/2000/svg" width="120" height="120">
<path d="M0 0 C1.32 0 2.64 0 4 0 C4 0.99 4 1.98 4 3 C9.94 2.67 15.88 2.34 22 2 C22.33 1.34 22.66 0.68 23 0 C24.32 0 25.64 0 27 0 C27 0.99 27 1.98 27 3 C32.94 2.67 38.88 2.34 45 2 C45.33 1.34 45.66 0.68 46 0 C47.32 0 48.64 0 50 0 C50 0.99 50 1.98 50 3 C51.051875 3.061875 52.10375 3.12375 53.1875 3.1875 C57.77272448 4.16467899 59.08456067 5.39311309 62 9 C62.62818909 11.99731445 62.62818909 11.99731445 62.63110352 15.36328125 C62.64363663 16.62809326 62.65616974 17.89290527 62.66908264 19.19604492 C62.6568139 20.56820712 62.64339381 21.94035944 62.62890625 23.3125 C62.62973552 24.72827334 62.6321971 26.14404657 62.63621521 27.55981445 C62.63906911 30.52226862 62.62441379 33.48396502 62.59692383 36.44628906 C62.56284012 40.23619339 62.56886221 44.02474335 62.5875864 47.81471252 C62.59817484 50.73680838 62.58920218 53.65859119 62.57420158 56.58065796 C62.56903273 57.97764149 62.56948582 59.3746579 62.57574654 60.77163696 C62.5812199 62.72670741 62.5579243 64.68179387 62.53344727 66.63671875 C62.52724869 67.74748779 62.52105011 68.85825684 62.5146637 70.00268555 C61.8843889 73.67329952 60.56299506 75.34738921 58 78 C55.30332799 79.348336 53.18028167 79.14952852 50.16088867 79.17700195 C48.32339302 79.19625481 48.32339302 79.19625481 46.44877625 79.21589661 C45.10517785 79.22406433 43.76157489 79.231508 42.41796875 79.23828125 C41.74202478 79.24235678 41.06608082 79.2464323 40.3696537 79.25063133 C36.7912794 79.27149129 33.21294343 79.28579273 29.63452148 79.29516602 C25.94221575 79.30622477 22.25051364 79.34061761 18.55842113 79.38033772 C15.71620073 79.40651139 12.87412391 79.41485849 10.03179359 79.41844749 C8.6710433 79.42331236 7.31029937 79.43492371 5.94966698 79.45348549 C4.04235778 79.47788561 2.13475483 79.47449125 0.22729492 79.4699707 C-0.85699295 79.47583694 -1.94128082 79.48170319 -3.0584259 79.48774719 C-6.70565359 78.88299443 -8.3653721 77.54047393 -11 75 C-12.37052737 72.25894525 -12.14997252 70.04544722 -12.17700195 66.97729492 C-12.18983719 65.71225632 -12.20267242 64.44721771 -12.21589661 63.1438446 C-12.22406422 61.75605663 -12.23150791 60.36826423 -12.23828125 58.98046875 C-12.24235678 58.28245966 -12.2464323 57.58445057 -12.25063133 56.86528969 C-12.27149222 53.1702059 -12.28579334 49.47515924 -12.29516602 45.7800293 C-12.30622572 41.96666395 -12.34061953 38.15388291 -12.38033772 34.34072399 C-12.40650691 31.40585763 -12.4148581 28.47113037 -12.41844749 25.53615761 C-12.4233134 24.13075124 -12.43492771 22.72535109 -12.45348549 21.32005882 C-12.47787651 19.3504788 -12.47449215 17.38061453 -12.4699707 15.41088867 C-12.47583694 14.29107101 -12.48170319 13.17125336 -12.48774719 12.01750183 C-11.88355941 8.27962744 -10.67483033 6.64134187 -8 4 C-5.69011685 3.25613932 -3.35684056 2.57809297 -1 2 C-0.67 1.34 -0.34 0.68 0 0 Z " fill="#F6F3F3" transform="translate(35,20)"/>
<path d="M0 0 C1.32 0 2.64 0 4 0 C4 0.99 4 1.98 4 3 C9.94 2.67 15.88 2.34 22 2 C22.33 1.34 22.66 0.68 23 0 C24.32 0 25.64 0 27 0 C27 0.99 27 1.98 27 3 C32.94 2.67 38.88 2.34 45 2 C45.33 1.34 45.66 0.68 46 0 C47.32 0 48.64 0 50 0 C50 0.99 50 1.98 50 3 C51.051875 3.061875 52.10375 3.12375 53.1875 3.1875 C57 4 57 4 62 9 C62 14.28 62 19.56 62 25 C37.58 25 13.16 25 -12 25 C-12 9 -12 9 -8 4 C-5.69011685 3.25613932 -3.35684056 2.57809297 -1 2 C-0.67 1.34 -0.34 0.68 0 0 Z " fill="#DD4547" transform="translate(35,20)"/>
<path d="M0 0 C0.69212082 0.32342377 1.38424164 0.64684753 2.09733582 0.98007202 C5.37769064 2.13271162 7.96933194 2.27774357 11.44262695 2.31884766 C12.72357742 2.33871735 14.00452789 2.35858704 15.32429504 2.37905884 C16.71228869 2.39093344 18.10028417 2.4025964 19.48828125 2.4140625 C20.91604215 2.43278405 22.3437921 2.4523582 23.77153015 2.4727478 C27.51805146 2.52397101 31.26460861 2.56364894 35.0112915 2.60089111 C38.83899732 2.64099253 42.66655535 2.69205679 46.49414062 2.7421875 C53.99599217 2.83883049 61.49791552 2.92327213 69 3 C66.31027825 5.68972175 64.92320661 5.26939651 61.16088867 5.30639648 C59.93589157 5.32238388 58.71089447 5.33837128 57.44877625 5.35484314 C56.10517796 5.36122043 54.7615747 5.36661298 53.41796875 5.37109375 C52.04274903 5.38005906 50.66753031 5.38918089 49.29231262 5.39845276 C46.40635813 5.41495705 43.52051981 5.42264511 40.63452148 5.42553711 C36.94201907 5.43091459 33.25061404 5.46855954 29.55842113 5.51428127 C26.71617181 5.54407752 23.87418551 5.55126123 21.03179359 5.55226326 C19.67103373 5.55646263 18.31027289 5.56888596 16.94966698 5.58978081 C6.27075542 5.74068313 6.27075542 5.74068313 3.02554321 3.84915161 C1.6262207 2.46508789 1.6262207 2.46508789 0 0 Z " fill="#E6EEED" transform="translate(24,94)"/>
<path d="M0 0 C3.63 0 7.26 0 11 0 C11 3.63 11 7.26 11 11 C7.37 11 3.74 11 0 11 C0 7.37 0 3.74 0 0 Z " fill="#97A8B4" transform="translate(41,70)"/>
<path d="M0 0 C2.64 0 5.28 0 8 0 C8 2.97 8 5.94 8 9 C5.36 9 2.72 9 0 9 C0 6.03 0 3.06 0 0 Z " fill="#E76063" transform="translate(30,71)"/>
<path d="M0 0 C2.64 0 5.28 0 8 0 C8 2.97 8 5.94 8 9 C5.36 9 2.72 9 0 9 C0 6.03 0 3.06 0 0 Z " fill="#C8CCD4" transform="translate(68,60)"/>
<path d="M0 0 C2.64 0 5.28 0 8 0 C8 2.97 8 5.94 8 9 C5.36 9 2.72 9 0 9 C0 6.03 0 3.06 0 0 Z " fill="#E65F62" transform="translate(30,60)"/>
<path d="M0 0 C2.64 0 5.28 0 8 0 C8 2.64 8 5.28 8 8 C5.36 8 2.72 8 0 8 C0 5.36 0 2.72 0 0 Z " fill="#E45457" transform="translate(30,82)"/>
<path d="M0 0 C2.64 0 5.28 0 8 0 C8 2.64 8 5.28 8 8 C5.36 8 2.72 8 0 8 C0 5.36 0 2.72 0 0 Z " fill="#C3C8D0" transform="translate(81,60)"/>
<path d="M0 0 C2.64 0 5.28 0 8 0 C8 2.64 8 5.28 8 8 C5.36 8 2.72 8 0 8 C0 5.36 0 2.72 0 0 Z " fill="#C4C9D2" transform="translate(81,50)"/>
<path d="M0 0 C2.97 0 5.94 0 9 0 C9 2.31 9 4.62 9 7 C6.03 7 3.06 7 0 7 C0 4.69 0 2.38 0 0 Z " fill="#C0C8D1" transform="translate(42,83)"/>
<path d="M0 0 C2.64 0 5.28 0 8 0 C8 2.64 8 5.28 8 8 C5.66705225 8.04241723 3.33297433 8.04092937 1 8 C0 7 0 7 -0.0625 3.4375 C-0.041875 2.303125 -0.02125 1.16875 0 0 Z " fill="#C6CAD3" transform="translate(55,50)"/>
<path d="M0 0 C2.64 0 5.28 0 8 0 C8 2.31 8 4.62 8 7 C5.36 7 2.72 7 0 7 C0 4.69 0 2.38 0 0 Z " fill="#BFC5CE" transform="translate(81,83)"/>
<path d="M0 0 C2.64 0 5.28 0 8 0 C8 2.31 8 4.62 8 7 C5.36 7 2.72 7 0 7 C0 4.69 0 2.38 0 0 Z " fill="#C0C6CF" transform="translate(68,83)"/>
<path d="M0 0 C2.64 0 5.28 0 8 0 C8 2.31 8 4.62 8 7 C5.36 7 2.72 7 0 7 C0 4.69 0 2.38 0 0 Z " fill="#C0C5CE" transform="translate(81,72)"/>
<path d="M0 0 C2.64 0 5.28 0 8 0 C8 2.31 8 4.62 8 7 C5.36 7 2.72 7 0 7 C0 4.69 0 2.38 0 0 Z " fill="#E34A4D" transform="translate(30,50)"/>
<path d="M0 0 C2.31 0 4.62 0 7 0 C7 2.31 7 4.62 7 7 C4.69 7 2.38 7 0 7 C0 4.69 0 2.38 0 0 Z " fill="#BEC4CD" transform="translate(56,83)"/>
<path d="M0 0 C2.31 0 4.62 0 7 0 C7 2.31 7 4.62 7 7 C4.69 7 2.38 7 0 7 C0 4.69 0 2.38 0 0 Z " fill="#C0C5CE" transform="translate(69,72)"/>
<path d="M0 0 C2.31 0 4.62 0 7 0 C7 2.31 7 4.62 7 7 C4.69 7 2.38 7 0 7 C0 4.69 0 2.38 0 0 Z " fill="#BFC5CE" transform="translate(56,72)"/>
<path d="M0 0 C2.31 0 4.62 0 7 0 C7 2.31 7 4.62 7 7 C4.69 7 2.38 7 0 7 C0 4.69 0 2.38 0 0 Z " fill="#C0C4CE" transform="translate(56,61)"/>
<path d="M0 0 C2.31 0 4.62 0 7 0 C7 2.31 7 4.62 7 7 C4.69 7 2.38 7 0 7 C0 4.69 0 2.38 0 0 Z " fill="#C0C7CF" transform="translate(43,61)"/>
<path d="M0 0 C2.31 0 4.62 0 7 0 C7 2.31 7 4.62 7 7 C4.69 7 2.38 7 0 7 C0 4.69 0 2.38 0 0 Z " fill="#BFC5CE" transform="translate(69,50)"/>
<path d="M0 0 C2.31 0 4.62 0 7 0 C7 2.31 7 4.62 7 7 C4.69 7 2.38 7 0 7 C0 4.69 0 2.38 0 0 Z " fill="#BEC5CF" transform="translate(43,50)"/>
<path d="M0 0 C1.32 0 2.64 0 4 0 C4.02708567 1.60407328 4.04643483 3.2082785 4.0625 4.8125 C4.07410156 5.70582031 4.08570313 6.59914063 4.09765625 7.51953125 C4 10 4 10 3 13 C2.34 13 1.68 13 1 13 C0.63779734 11.20994059 0.28547531 9.41787943 -0.0625 7.625 C-0.25972656 6.62726562 -0.45695312 5.62953125 -0.66015625 4.6015625 C-1 2 -1 2 0 0 Z " fill="#243C56" transform="translate(58,20)"/>
<path d="M0 0 C1.32 0 2.64 0 4 0 C4.02708567 1.60407328 4.04643483 3.2082785 4.0625 4.8125 C4.07410156 5.70582031 4.08570313 6.59914063 4.09765625 7.51953125 C4 10 4 10 3 13 C2.34 13 1.68 13 1 13 C0.63779734 11.20994059 0.28547531 9.41787943 -0.0625 7.625 C-0.25972656 6.62726562 -0.45695312 5.62953125 -0.66015625 4.6015625 C-1 2 -1 2 0 0 Z " fill="#403B52" transform="translate(35,20)"/>
<path d="M0 0 C1.32 0 2.64 0 4 0 C3.67 4.29 3.34 8.58 3 13 C2.01 12.67 1.02 12.34 0 12 C-0.19477739 10.37585622 -0.38059458 8.75063577 -0.5625 7.125 C-0.66691406 6.22007813 -0.77132812 5.31515625 -0.87890625 4.3828125 C-1 2 -1 2 0 0 Z " fill="#364059" transform="translate(81,20)"/>
<path d="M0 0 C0.66 0.33 1.32 0.66 2 1 C1.35546875 1.66386719 0.7109375 2.32773437 0.046875 3.01171875 C-2.42868941 6.62585382 -2.66074096 9.57269568 -2.75 13.8125 C-2.77964844 14.50537109 -2.80929688 15.19824219 -2.83984375 15.91210938 C-2.90999628 17.60746213 -2.95732662 19.30373312 -3 21 C-3.33 21 -3.66 21 -4 21 C-4.10845031 18.43635517 -4.18749744 15.87733721 -4.25 13.3125 C-4.28351562 12.59126953 -4.31703125 11.87003906 -4.3515625 11.12695312 C-4.42478439 7.11805482 -4.28590487 5.42830322 -1.984375 1.98046875 C-1.00210937 1.00013672 -1.00210937 1.00013672 0 0 Z " fill="#C55458" transform="translate(27,24)"/>
<path d="M0 0 C0.33 0.99 0.66 1.98 1 3 C2.32 3 3.64 3 5 3 C5.33 2.34 5.66 1.68 6 1 C6.66 1.33 7.32 1.66 8 2 C5.6875 4.5 5.6875 4.5 3 7 C2.01 7 1.02 7 0 7 C0 4.69 0 2.38 0 0 Z " fill="#EAC4C5" transform="translate(42,72)"/>
<path d="M0 0 C0.99 1.485 0.99 1.485 2 3 C2.66 2.01 3.32 1.02 4 0 C3.67 2.97 3.34 5.94 3 9 C2.34 9 1.68 9 1 9 C0.67 6.03 0.34 3.06 0 0 Z " fill="#5A3D53" transform="translate(58,24)"/>
<path d="M0 0 C2.31 0 4.62 0 7 0 C6.01 0.495 6.01 0.495 5 1 C4.67 1.99 4.34 2.98 4 4 C2.68 3.67 1.36 3.34 0 3 C0 2.01 0 1.02 0 0 Z " fill="#FCF4F3" transform="translate(43,72)"/>
</svg>
